**ABCDEFGHIJKLMNOPQRSTUVWXYZabcdefghijklmnopqrstuvwxyz**************************
**PARASOLID !"#$%&'()*+,-./:;<=>?@[\]^_`{|}~0123456789**************************
**PART1;
MC=AMD64;
MC_MODEL=Intel64 Family 6 Model 158 Stepping 9, GenuineIntel;
MC_ID=unknown;
OS=Windows_NT;
OS_RELEASE=unknown;
FRU=Parasolid Version 30.0, build 310,  6- 8-2018;
APPL=SOLIDWORKS 2018-2018316;
SITE=;
USER=unknown;
FORMAT=text;
GUISE=transmit;
KEY=makeProjectedPlanarWire;
FILE=makeProjectedPlanarWire.x_t;
DATE=Mon Oct  7 17:44:43 2019;
**PART2;
SCH=SCH_3000310_30000;
USFLD_SIZE=0;
**PART3;
**END_OF_HEADER*****************************************************************
T51 : TRANSMIT FILE created by modeller version 300031023 SCH_3000310_30000_1300
6205 0 12 33 CCCCCCI4 mesh1006 0 I8 polyline1008 0 CCCCCCCDI5 owner1040 0 CCCCCC
I13 boundary_mesh1006 0 I17 boundary_polyline1008 0 CCCA16 index_map_offset0 0 1
 dA9 index_map82 0 A17 node_id_index_map82 0 A20 schema_embedding_map82 0 A5 chi
ld12 0 A14 lowest_node_id0 0 1 dZ1 588 0 0 0 0 0 0 0 0 1e3 1e-8 0 2 0 1 0 3 1 3
 4 5 6 0 0 7 8 9 0 0 0 0 0 0 13 255 3 169 0 1 0 10 0 0 7 10 50 255 4 2 0 10 0 0
 0 +0 .034 0 0 1 0 0 0 1 30 255 5 114 0 8 11 0 0 +-.15 .034 0 0 0 1 29 255 6 167
 0 9 12 0 -.15 .034 .02525 19 8 CCCCCCCA5 owner12 0 Z7 168 0 1 0 0 3 V0 16 255 8
 113 0 ?13 0 14 5 0 0 1 18 255 9 165 0 15 0 16 6 ?1 17 255 15 0 0 0 0 9 17 18 0
 13 -18 16 162 0 19 9 20 12 ?1 17 19 0 21 13 22 16 23 14 0 24 +18 20 159 0 22 16
 25 26 ?1 29 12 164 0 16 26 6 -.15 .034 -.02525 29 26 161 0 20 27 12 -.135 .034
 -.04025 29 27 158 0 25 28 26 .135 .034 -.04025 18 25 156 0 29 20 30 27 ?1 29 28
 155 0 30 31 27 .15 .034 -.02525 18 30 153 0 32 25 33 28 ?1 29 31 152 0 33 34 28
 .15 .034 .02525 18 33 150 0 35 30 36 31 ?1 29 34 149 0 36 37 31 .135 .034 .0402
5 18 36 147 0 38 33 39 34 ?1 29 37 146 0 39 40 34 -.135 .034 .04025 18 39 144 0
 17 36 41 37 ?1 29 40 143 0 41 42 37 .145 .034 .02025 18 41 141 0 43 39 44 40 ?1
 29 42 140 0 44 45 40 .145 .034 -.02025 18 44 138 0 46 41 47 42 ?1 29 45 137 0 4
7 48 42 .13 .034 -.03525 18 47 135 0 49 44 50 45 ?1 29 48 134 0 50 51 45 -.13 .0
34 -.03525 18 50 132 0 52 47 53 48 ?1 29 51 131 0 53 54 48 -.145 .034 -.02025 18
 53 129 0 55 50 56 51 ?1 29 54 128 0 56 57 51 -.145 .034 .02025 18 56 126 0 58 5
3 59 54 ?1 29 57 125 0 59 60 54 -.13 .034 .03525 18 59 123 0 61 56 62 57 ?1 29 6
0 122 0 62 0 57 .13 .034 .03525 18 62 120 0 63 59 0 60 ?1 17 63 0 64 61 65 62 43
 66 0 67 +15 255 64 6 0 63 10 21 17 61 0 64 58 63 59 67 68 0 69 +17 65 0 64 63 4
6 41 70 71 0 0 +17 43 0 0 0 0 41 63 66 0 65 -16 66 8 0 ?63 68 0 72 0 0 1 17 67 0
 0 0 0 62 61 68 0 0 -16 68 15 0 ?61 73 66 74 0 0 1 16 73 22 0 ?58 75 68 76 0 0 1
 30 74 16 0 68 72 76 0 +0 .034 .03525 -1 0 0 31 255 72 9 0 66 0 74 0 -.13 .034 .
02025 0 1 0 0 0 1 .015 31 76 23 0 73 74 77 0 --.13 .034 .02025 0 1 0 0 0 1 .015
 30 77 30 0 75 76 78 0 +-.145 .034 0 0 0 -1 16 75 29 0 ?55 79 73 77 0 0 1 31 78
 37 0 79 77 80 0 --.13 .034 -.02025 0 1 0 0 0 1 .015 16 79 36 0 ?52 81 75 78 0 0
 1 30 80 44 0 81 78 82 0 +-843434517630103e-33 .034 -.03525 1 0 -239272203583008
e-31 16 81 43 0 ?49 83 79 80 0 0 1 31 82 51 0 83 80 84 0 -.13 .034 -.02025 0 1 0
 0 0 1 .015 16 83 50 0 ?46 71 81 82 0 0 1 30 84 58 0 71 82 85 0 +.145 .034 -5708
59356633502e-31 393696108023105e-30 0 1 16 71 57 0 ?65 18 83 84 0 0 1 31 85 65 0
 18 84 86 0 +-.135 .034 .02525 0 1 0 0 0 1 .015 16 18 64 0 ?17 87 71 85 0 0 1 30
 86 72 0 87 85 88 0 +1861936530881775e-33 .034 .04025 1 0 -462592926927149e-31 1
6 87 71 0 ?38 89 18 86 0 0 1 31 88 79 0 89 86 90 0 +.135 .034 .02525 0 1 0 0 0 1
 .015 16 89 78 0 ?35 91 87 88 0 0 1 30 90 86 0 91 88 92 0 +.15 .034 -51718463880
0539e-31 -344789759200359e-30 0 -1 16 91 85 0 ?32 93 89 90 0 0 1 31 92 93 0 93 9
0 94 0 +.135 .034 -.02525 0 1 0 0 0 1 .015 16 93 92 0 ?29 95 91 92 0 0 1 30 94 1
00 0 95 92 11 0 +0 .034 -.04025 -1 0 0 16 95 99 0 ?22 14 93 94 0 0 1 31 11 107 0
 14 94 5 0 +-.135 .034 -.02525 0 1 0 0 0 1 .015 16 14 106 0 ?19 8 95 11 0 0 1 17
 22 0 21 19 29 20 96 95 0 23 +15 21 7 0 17 10 0 17 29 0 21 22 32 25 97 93 0 96 +
17 96 0 0 0 0 25 22 95 0 0 -17 23 0 0 0 0 20 19 14 0 0 -17 32 0 21 29 35 30 98 9
1 0 97 +17 97 0 0 0 0 30 29 93 0 0 -17 35 0 21 32 38 33 99 89 0 98 +17 98 0 0 0
 0 33 32 91 0 0 -17 38 0 21 35 17 36 100 87 0 99 +17 99 0 0 0 0 36 35 89 0 0 -17
 17 0 21 38 13 39 15 18 0 100 +17 100 0 0 0 0 39 38 87 0 0 -17 13 0 21 17 19 9 2
4 8 0 0 +17 24 0 0 0 0 16 13 8 0 0 -14 255 10 1 0 ?0 0 64 3 4 +0 0 0 0 3 17 46 0
 64 65 49 44 101 83 0 70 +17 49 0 64 46 52 47 102 81 0 101 +17 101 0 0 0 0 47 46
 83 0 0 -17 70 0 0 0 0 44 65 71 0 0 -17 52 0 64 49 55 50 103 79 0 102 +17 102 0
 0 0 0 50 49 81 0 0 -17 55 0 64 52 58 53 104 75 0 103 +17 103 0 0 0 0 53 52 79 0
 0 -17 58 0 64 55 61 56 69 73 0 104 +17 104 0 0 0 0 56 55 75 0 0 -17 69 0 0 0 0
 59 58 73 0 0 -1 0 
